<svg
  id="Layer_1"
  data-name="Layer 1"
  xmlns="http://www.w3.org/2000/svg"
  viewBox="0 0 64 64"
><title>ceiling cam</title><path
    fill="#E34C26"
    d="M32,20A20,20,0,0,0,12,40h0a20,20,0,0,0,40,0h0A20,20,0,0,0,32,20Zm0,30A10,10,0,1,1,42,40,10,10,0,0,1,32,50Z"
  /><path
    fill="#E34C26"
    d="M58.45,4H5.55A1.55,1.55,0,0,0,4,5.55v.91A1.55,1.55,0,0,0,5.55,8H16a2.93,2.93,0,0,1,2.59,1.56,4.57,4.57,0,0,0,4,2.44h5.59A1.81,1.81,0,0,1,30,13.81v3.1A1.09,1.09,0,0,0,31.09,18h1.83A1.09,1.09,0,0,0,34,16.91v-3.1A1.81,1.81,0,0,1,35.81,12H41.4a4.57,4.57,0,0,0,4-2.44A2.93,2.93,0,0,1,48,8H58.45A1.55,1.55,0,0,0,60,6.45V5.55A1.55,1.55,0,0,0,58.45,4Z"
  /><circle cx="32" cy="40" r="2" fill="#E34C26" /></svg>
