<svg width="18" height="22" viewBox="0 0 18 22" fill="none" xmlns="http://www.w3.org/2000/svg">
<path d="M14.25 0.5H3.75C2.75544 0.5 1.80161 0.895088 1.09835 1.59835C0.395088 2.30161 0 3.25544 0 4.25V17.75C0 18.7446 0.395088 19.6984 1.09835 20.4016C1.80161 21.1049 2.75544 21.5 3.75 21.5H14.25C15.2446 21.5 16.1984 21.1049 16.9016 20.4016C17.6049 19.6984 18 18.7446 18 17.75V4.25C18 3.25544 17.6049 2.30161 16.9016 1.59835C16.1984 0.895088 15.2446 0.5 14.25 0.5ZM6.75 3.5H11.25C11.4489 3.5 11.6397 3.57902 11.7803 3.71967C11.921 3.86032 12 4.05109 12 4.25C12 4.44891 11.921 4.63968 11.7803 4.78033C11.6397 4.92098 11.4489 5 11.25 5H6.75C6.55109 5 6.36032 4.92098 6.21967 4.78033C6.07902 4.63968 6 4.44891 6 4.25C6 4.05109 6.07902 3.86032 6.21967 3.71967C6.36032 3.57902 6.55109 3.5 6.75 3.5ZM7.2825 16.0325L5.0325 18.2825C4.96278 18.3528 4.87983 18.4086 4.78843 18.4467C4.69704 18.4847 4.59901 18.5043 4.5 18.5043C4.40099 18.5043 4.30296 18.4847 4.21157 18.4467C4.12017 18.4086 4.03722 18.3528 3.9675 18.2825L3.2175 17.5325C3.14757 17.4626 3.0921 17.3796 3.05426 17.2882C3.01641 17.1968 2.99693 17.0989 2.99693 17C2.99693 16.9011 3.01641 16.8032 3.05426 16.7118C3.0921 16.6204 3.14757 16.5374 3.2175 16.4675C3.35873 16.3263 3.55027 16.2469 3.75 16.2469C3.84889 16.2469 3.94682 16.2664 4.03819 16.3043C4.12955 16.3421 4.21257 16.3976 4.2825 16.4675L4.5 16.6925L6.2175 14.9675C6.28743 14.8976 6.37045 14.8421 6.46181 14.8043C6.55318 14.7664 6.65111 14.7469 6.75 14.7469C6.84889 14.7469 6.94682 14.7664 7.03819 14.8043C7.12955 14.8421 7.21257 14.8976 7.2825 14.9675C7.35243 15.0374 7.4079 15.1204 7.44574 15.2118C7.48359 15.3032 7.50307 15.4011 7.50307 15.5C7.50307 15.5989 7.48359 15.6968 7.44574 15.7882C7.4079 15.8796 7.35243 15.9626 7.2825 16.0325ZM7.2825 9.2825L5.0325 11.5325C4.96278 11.6028 4.87983 11.6586 4.78843 11.6967C4.69704 11.7347 4.59901 11.7543 4.5 11.7543C4.40099 11.7543 4.30296 11.7347 4.21157 11.6967C4.12017 11.6586 4.03722 11.6028 3.9675 11.5325L3.2175 10.7825C3.07627 10.6413 2.99693 10.4497 2.99693 10.25C2.99693 10.0503 3.07627 9.85873 3.2175 9.7175C3.35873 9.57627 3.55027 9.49693 3.75 9.49693C3.94973 9.49693 4.14127 9.57627 4.2825 9.7175L4.5 9.9425L6.2175 8.2175C6.35873 8.07627 6.55027 7.99693 6.75 7.99693C6.94973 7.99693 7.14127 8.07627 7.2825 8.2175C7.42373 8.35873 7.50307 8.55027 7.50307 8.75C7.50307 8.94973 7.42373 9.14127 7.2825 9.2825ZM14.25 17.75H9.75C9.55109 17.75 9.36032 17.671 9.21967 17.5303C9.07902 17.3897 9 17.1989 9 17C9 16.8011 9.07902 16.6103 9.21967 16.4697C9.36032 16.329 9.55109 16.25 9.75 16.25H14.25C14.4489 16.25 14.6397 16.329 14.7803 16.4697C14.921 16.6103 15 16.8011 15 17C15 17.1989 14.921 17.3897 14.7803 17.5303C14.6397 17.671 14.4489 17.75 14.25 17.75ZM14.25 11H9.75C9.55109 11 9.36032 10.921 9.21967 10.7803C9.07902 10.6397 9 10.4489 9 10.25C9 10.0511 9.07902 9.86032 9.21967 9.71967C9.36032 9.57902 9.55109 9.5 9.75 9.5H14.25C14.4489 9.5 14.6397 9.57902 14.7803 9.71967C14.921 9.86032 15 10.0511 15 10.25C15 10.4489 14.921 10.6397 14.7803 10.7803C14.6397 10.921 14.4489 11 14.25 11Z" fill="#A6A6AA"/>
</svg>
